# xmcd CD database file
#
# Track frame offsets:
#	150
#	10463
#	26750
#	39718
#	51318
#	70133
#	82349
#	93050
#	107154
#	118563
#	130985
#	147133
#	159735
#	172460
#	185859
#	200924
#	247519
#	274456
#	296950
#	312960
#	324955
#
# Disc length: 4534 seconds
#
# Revision: 0
# Processed by: cddbd v1.5.2PL0 Copyright (c) Steve Scherf et al.
# Submitted via: CDex 1.70beta2
#
DISCID=4a11b415
DTITLE=Nina Simone - The Very Best Of
DYEAR=2006
DGENRE=Jazz
TTITLE0=Ain't Got No, I Got Life (James Rado/Gerome Ragni/Galt MacDermot)
TTITLE1=My Baby Just Cares For Me (Walter Donaldson/Gus Kahn/)
TTITLE2=Feeling Good (Anthony Newley/Leslie Bricusse/)
TTITLE3=I Put A Spell On You (Screamin' Jay Hawkins//)
TTITLE4=I Loves You Porgy (George Gershwin//)
TTITLE5=Don't Let Me Be Misunderstood (Bennie Benjamin/Gloria Caldwell/Sol Marcus)
TTITLE6=The Look Of Love (Bacharach/David/)
TTITLE7=I Wish I Knew How It Would Feel To Be Free (Billy Taylor/Richard Lamb/)
TTITLE8=I Want A Little Sugar In My Bowl (Nina Simone//)
TTITLE9=Do I Move You (Nina Simone//)
TTITLE10=Do What You Gotta Do (Jimmy Webb//)
TTITLE11=To Be Young, Gifted And Black (Nina Simone/Weldon Irvine/)
TTITLE12=Since I Fell For You (Buddy Johnson//)
TTITLE13=Nobody's Fault But Mine (trad blues//)
TTITLE14=I Think It's Going To Rain Today (Randy Newman//)
TTITLE15=Sinnerman (trad spiritual//)
TTITLE16=The Times They Are A Changin' (Bob Dylan//)
TTITLE17=Mr Bojangles (Jerry Jeff Walker//)
TTITLE18=Here Comes The Sun (George Harrison//)
TTITLE19=To Love Somebody (Barry Gibb/Robin Gibb/)
TTITLE20=Ain't Got No, I Got Life (Groovefinder Remix) (James Rado/Gerome Ragni/Galt MacDermot)
EXTD=YEAR: 2006
EXTT0=
EXTT1=
EXTT2=
EXTT3=
EXTT4=
EXTT5=
EXTT6=
EXTT7=
EXTT8=
EXTT9=
EXTT10=
EXTT11=
EXTT12=
EXTT13=
EXTT14=
EXTT15=
EXTT16=
EXTT17=
EXTT18=
EXTT19=
EXTT20=
PLAYORDER=
